<svg xmlns="http://www.w3.org/2000/svg" viewBox="0 0 640.74 135.91"><path d="M150.68 128H163V5.42h-12.32V2.94h26.06v65.8h.32a26 26 0 0 1 7.67-11.68q5.43-4.77 14.23-4.77a26.93 26.93 0 0 1 12.95 3.27 37.38 37.38 0 0 1 10.71 8.67A41.5 41.5 0 0 1 230 76.87a44 44 0 0 1-.08 30.69 44.18 44.18 0 0 1-7.59 13 37.76 37.76 0 0 1-11.11 9 28 28 0 0 1-13.35 3.36 19.12 19.12 0 0 1-9.19-2 22.21 22.21 0 0 1-6.24-4.87 21.82 21.82 0 0 1-3.75-5.83 49.13 49.13 0 0 1-1.92-5.13h-.32v15.38h-25.77zm66-38a118.26 118.26 0 0 0-.8-14.59 40.32 40.32 0 0 0-2.79-11.06 16.19 16.19 0 0 0-5.6-7.07 15.87 15.87 0 0 0-9.19-2.48 18.71 18.71 0 0 0-9.75 2.3 19.64 19.64 0 0 0-6.24 5.84 22.86 22.86 0 0 0-2.8 5.31 36.59 36.59 0 0 0-1.67 6.72 77.74 77.74 0 0 0-.88 8.93q-.24 5-.24 11.94a92.47 92.47 0 0 0 .8 12 40.34 40.34 0 0 0 3 11.24 21 21 0 0 0 6.32 8.22q4.08 3.18 10.79 3.18 6.56 0 10.39-2.83a16.85 16.85 0 0 0 5.76-8.13 47.09 47.09 0 0 0 2.39-12.83q.53-7.53.53-16.69zM264.34 86.6c0 1.18 0 2.39-.08 3.63s-.08 2.8-.08 4.68a121.38 121.38 0 0 0 .64 12.21 39.51 39.51 0 0 0 2.8 11.49 21 21 0 0 0 6.38 8.49q4.23 3.36 11.27 3.36a25.58 25.58 0 0 0 11.59-2.3 21.35 21.35 0 0 0 7.2-5.57A24.62 24.62 0 0 0 308 116q1.27-3.36 1.92-5.48l2.4.53a56.1 56.1 0 0 1-1.84 5.57 25.8 25.8 0 0 1-4.32 7.25 26.39 26.39 0 0 1-8 6.37q-5 2.75-13 2.74a38.12 38.12 0 0 1-14.78-2.83 33.54 33.54 0 0 1-11.8-8.15 37.17 37.17 0 0 1-7.67-12.64A46.87 46.87 0 0 1 248.19 93 42.29 42.29 0 0 1 251 77.84a43.65 43.65 0 0 1 7.67-13 38.61 38.61 0 0 1 11.44-9.1 29.7 29.7 0 0 1 14.06-3.45 29.38 29.38 0 0 1 9.59 1.77 27.61 27.61 0 0 1 9.52 5.74 31.48 31.48 0 0 1 7.35 10.53q3 6.54 3 16.27zm32.93-2.48a36.58 36.58 0 0 0 .32-4.59V75.1a38.93 38.93 0 0 0-1-9.9 16.66 16.66 0 0 0-2.92-6.2 10.13 10.13 0 0 0-4.47-3.27 16.26 16.26 0 0 0-5.68-1 15.61 15.61 0 0 0-8.95 2.39 16.94 16.94 0 0 0-5.57 6.49 35.2 35.2 0 0 0-3.14 9.39 79.46 79.46 0 0 0-1.36 11.14zM325.25 128h12.31V57.06h-12.31v-2.47H351v17.86h.32a38.56 38.56 0 0 1 2.07-6 26.59 26.59 0 0 1 4-6.46 23.27 23.27 0 0 1 6.16-5.22 16.88 16.88 0 0 1 8.71-2.12 14.33 14.33 0 0 1 6.38 1.35 13.85 13.85 0 0 1 4.48 3.36 12.8 12.8 0 0 1 2.56 4.64 18.44 18.44 0 0 1 .8 5.31c0 3.89-.8 6.49-2.4 7.78a8.62 8.62 0 0 1-5.6 2q-7 0-7-5a8.22 8.22 0 0 1 .32-2.57c.21-.65.45-1.29.72-1.94a19.83 19.83 0 0 0 .72-2.21 15.21 15.21 0 0 0 .32-3.54q0-5.66-5.6-5.66a9.32 9.32 0 0 0-5.43 2.12 21.4 21.4 0 0 0-5.36 6.19 41 41 0 0 0-4.17 9.83 47 47 0 0 0-1.67 13.17V128h13.9v2.47h-40zM390.31 128h12.31V57.06h-12.31v-2.47h25.74v17.86h.32a37.67 37.67 0 0 1 2.08-6 26.59 26.59 0 0 1 4-6.46 23.23 23.23 0 0 1 6.15-5.22 16.9 16.9 0 0 1 8.71-2.12 14.4 14.4 0 0 1 6.4 1.33 13.7 13.7 0 0 1 4.47 3.36 12.65 12.65 0 0 1 2.56 4.66 18.44 18.44 0 0 1 .8 5.31c0 3.89-.8 6.49-2.4 7.78a8.6 8.6 0 0 1-5.59 2q-7 0-7-5a8.53 8.53 0 0 1 .32-2.57c.21-.65.46-1.29.72-1.94a16.4 16.4 0 0 0 .72-2.21 15.21 15.21 0 0 0 .32-3.54q0-5.66-5.59-5.66a9.34 9.34 0 0 0-5.44 2.12 21.38 21.38 0 0 0-5.35 6.19 40.63 40.63 0 0 0-4.16 9.82 47 47 0 0 0-1.68 13.17V128h13.91v2.47h-40zM455.54 128h12.31V57.06h-12.31v-2.47h26V128h12.36v2.47h-38.36zM521.72 86.6c0 1.18 0 2.39-.08 3.63s-.08 2.8-.08 4.68a121.38 121.38 0 0 0 .64 12.21 39.51 39.51 0 0 0 2.8 11.49 21 21 0 0 0 6.39 8.49q4.23 3.36 11.27 3.36a25.58 25.58 0 0 0 11.59-2.3 21.21 21.21 0 0 0 7.19-5.57 24.41 24.41 0 0 0 3.92-6.63q1.27-3.36 1.92-5.48l2.4.53a56.1 56.1 0 0 1-1.84 5.57 26 26 0 0 1-4.32 7.25 26.39 26.39 0 0 1-8 6.37q-5 2.75-13 2.74a38.21 38.21 0 0 1-14.79-2.83A33.59 33.59 0 0 1 516 122a37.17 37.17 0 0 1-7.67-12.64A46.87 46.87 0 0 1 505.57 93a42.08 42.08 0 0 1 2.8-15.13 43.44 43.44 0 0 1 7.67-13 38.69 38.69 0 0 1 11.43-9.1 29.76 29.76 0 0 1 14.07-3.45 29.42 29.42 0 0 1 9.59 1.77 27.7 27.7 0 0 1 9.52 5.74 31.48 31.48 0 0 1 7.35 10.5q3 6.54 3 16.27zm32.93-2.48a36.58 36.58 0 0 0 .32-4.59V75.1a39.39 39.39 0 0 0-1-9.9 16.66 16.66 0 0 0-2.92-6.2 10.13 10.13 0 0 0-4.47-3.27 16.26 16.26 0 0 0-5.68-1 15.61 15.61 0 0 0-8.9 2.42 17.05 17.05 0 0 0-5.6 6.46 35.56 35.56 0 0 0-3.16 9.39 79.46 79.46 0 0 0-1.36 11.14zM587.26 105.7H589a72.08 72.08 0 0 0 2.88 8.58 30.91 30.91 0 0 0 4.71 8 23.56 23.56 0 0 0 7.28 5.92 21.75 21.75 0 0 0 10.39 2.3 13.54 13.54 0 0 0 9.11-3.45q4-3.44 4-11.23 0-6.72-3.12-9.46A23.71 23.71 0 0 0 617 102l-12.47-4.78a62.3 62.3 0 0 1-5.2-2.21 18.74 18.74 0 0 1-5.19-3.71 18.22 18.22 0 0 1-3.92-6.11 25.5 25.5 0 0 1-1.52-9.55A23.83 23.83 0 0 1 595.26 59a21.24 21.24 0 0 1 7.27-4.95 23.59 23.59 0 0 1 9.19-1.77 21 21 0 0 1 5.68.62q2.16.62 3.75 1.23c1.07.42 2 .83 2.88 1.24a6.82 6.82 0 0 0 3 .62 2.74 2.74 0 0 0 2.56-1.41h1.76v20.17h-1.76q-1.12-3.89-2.56-7.52a31 31 0 0 0-3.44-6.45 14.37 14.37 0 0 0-5-4.43 14.53 14.53 0 0 0-7-1.59q-7.66 0-11.91 3.81a13 13 0 0 0-4.23 10.17q0 5.66 3.59 8.57a36.05 36.05 0 0 0 10.63 5.4l11.8 4.29a33 33 0 0 1 12.31 7.79q4.8 5 4.8 13.08a27.15 27.15 0 0 1-1.68 9.38 23 23 0 0 1-4.95 8 25.27 25.27 0 0 1-8 5.57 26.1 26.1 0 0 1-10.79 2.12 24.87 24.87 0 0 1-6.47-.8q-3-.79-5.44-1.68c-1.65-.58-3.17-1.15-4.56-1.68a10.75 10.75 0 0 0-3.83-.79 3.5 3.5 0 0 0-2.56.79 7.56 7.56 0 0 0-1.28 1.68h-1.76z"/><circle fill="#bbcf4a" cx="112.33" cy="24.61" r="21.67"/><circle fill="#d81d1d" cx="112.33" cy="67.94" r="21.67"/><circle fill="#d81d1d" cx="69" cy="67.94" r="21.67"/><circle fill="#7e57c2" cx="112.33" cy="111.27" r="21.67"/><circle fill="#7e57c2" cx="69" cy="111.27" r="21.67"/><circle fill="#7e57c2" cx="25.67" cy="111.27" r="21.67"/></svg>