<svg xmlns="http://www.w3.org/2000/svg" xmlns:xlink="http://www.w3.org/1999/xlink" width="620" height="378.15"><rect width="620" height="378.15" rx="5" ry="5" class="a"/><circle cx="20" cy="20" r="10" fill="#ff5f58"/><circle cx="52" cy="20" r="10" fill="#ffbd2e"/><circle cx="84" cy="20" r="10" fill="#18c132"/><svg height="325.65" viewBox="0 0 97 32.565" width="970" x="12.5" xmlns="http://www.w3.org/2000/svg" xmlns:xlink="http://www.w3.org/1999/xlink" y="40"><style>@keyframes o{0%{transform:translateX(0)}26%{transform:translateX(-97px)}26.1%{transform:translateX(-485px)}26.9%{transform:translateX(-582px)}51.5%{transform:translateX(-679px)}56.1%{transform:translateX(-776px)}57%{transform:translateX(-873px)}58.5%{transform:translateX(-970px)}60.3%{transform:translateX(-1067px)}73%{transform:translateX(-1164px)}73.1%{transform:translateX(-1358px)}76.9%{transform:translateX(-1746px)}77.4%{transform:translateX(-2134px)}77.5%{transform:translateX(-2425px)}77.6%{transform:translateX(-2813px)}78.4%{transform:translateX(-2910px)}to{transform:translateX(-3007px)}}.a{fill:#1f1f1f}.f{fill:#4f76a1}.g,.h,.i,.j{fill:#be3f48;font-weight:700}.h,.i,.j{fill:#c5a635}.i,.j{fill:#879a3b}.j{fill:#b9bcba}.k{fill:#879a3b}.l,.q{fill:#c5c5c5}.q{text-decoration:underline}</style><g font-size="1.67" font-family="Monaco,Consolas,Menlo,'Bitstream Vera Sans Mono','Powerline Symbols',monospace"><defs><symbol id="1"><text y="1.67" class="f">~/P/p/berries</text></symbol><symbol id="2"><text y="1.67" class="f">~/P/p/berries</text><text x="14.028" y="1.67" class="g">❯</text><text x="15.03" y="1.67" class="h">❯</text><text x="16.032" y="1.67" class="i">❯</text></symbol><symbol id="3"><text y="1.67" class="f">~/P/p/berries</text><text x="14.028" y="1.67" class="g">❯</text><text x="15.03" y="1.67" class="h">❯</text><text x="16.032" y="1.67" class="i">❯</text><text x="88.176" y="1.67" class="i">master</text><text x="95.19" y="1.67" class="j">◼</text></symbol><symbol id="4"><text y="1.67" class="f">~/P/p/berries</text><text x="14.028" y="1.67" class="g">❯</text><text x="15.03" y="1.67" class="h">❯</text><text x="16.032" y="1.67" class="i">❯</text><text x="18.036" y="1.67" class="k">acai</text><text x="88.176" y="1.67" class="i">master</text><text x="95.19" y="1.67" class="j">◼</text></symbol><symbol id="5"><text y="1.67" class="k">✔</text><text x="2.004" y="1.67" class="l">Found</text><text x="8.016" y="1.67" class="l">5</text><text x="10.02" y="1.67" class="l">fix(es)</text><text x="18.036" y="1.67" class="l">in</text><text x="21.042" y="1.67" class="l">5</text><text x="23.046" y="1.67" class="l">file(s)</text><text x="31.062" y="1.67" class="l">(in</text><text x="35.07" y="1.67" class="l">0.04s).</text></symbol><symbol id="6"><text y="1.67" class="l">Show</text><text x="5.01" y="1.67" class="l">5</text><text x="7.014" y="1.67" class="l">hot</text><text x="11.022" y="1.67" class="l">spots:</text></symbol><symbol id="7"><text x="2.004" y="1.67" class="l">Score</text><text x="28.056" y="1.67" class="l">File</text></symbol><symbol id="8"><text x="2.004" y="1.67" class="l">1</text><text x="26.052" y="1.67" class="l">-</text><text x="28.056" y="1.67" class="l">packages/acai-cli/README.md</text></symbol><symbol id="9"><text x="2.004" y="1.67" class="l">0.9985831944772313</text><text x="26.052" y="1.67" class="l">-</text><text x="28.056" y="1.67" class="l">packages/acai-cli/package.json</text></symbol><symbol id="10"><text x="2.004" y="1.67" class="l">0.9931493328759722</text><text x="26.052" y="1.67" class="l">-</text><text x="28.056" y="1.67" class="l">packages/acai-cli/src/argv.js</text></symbol><symbol id="11"><text x="2.004" y="1.67" class="l">0.06971947995434409</text><text x="26.052" y="1.67" class="l">-</text><text x="28.056" y="1.67" class="l">CONTRIBUTING.md</text></symbol><symbol id="12"><text x="2.004" y="1.67" class="l">0.000012298294040754015</text><text x="26.052" y="1.67" class="l">-</text><text x="28.056" y="1.67" class="l">packages/acai/README.md</text></symbol><symbol id="a"><path fill="transparent" d="M0 0h97v16H0z"/></symbol><symbol id="b"><path fill="#f83e19" d="M0 0h1.102v2.171H0z"/></symbol></defs><path class="a" d="M0 0h97v32.565H0z"/><g style="animation-duration:7.298761999999998s;animation-iteration-count:infinite;animation-name:o;animation-timing-function:steps(1,end)"><svg width="3104"><svg><use xlink:href="#a"/><use xlink:href="#b" x="-.004"/></svg><svg x="97"><use xlink:href="#a"/><use xlink:href="#b" x="-.004"/></svg><svg x="194"><use xlink:href="#a"/><use xlink:href="#b" x="13.996"/><use xlink:href="#1"/></svg><svg x="291"><use xlink:href="#a"/><use xlink:href="#b" x="13.996"/><use xlink:href="#1"/></svg><svg x="388"><use xlink:href="#a"/><use xlink:href="#b" x="17.996"/><use xlink:href="#2"/></svg><svg x="485"><use xlink:href="#a"/><use xlink:href="#b" x="17.996"/><use xlink:href="#2"/></svg><svg x="582"><use xlink:href="#a"/><use xlink:href="#b" x="17.996"/><use xlink:href="#3"/></svg><svg x="679"><use xlink:href="#a"/><use xlink:href="#b" x="18.996"/><text y="1.67" class="f">~/P/p/berries</text><text x="14.028" y="1.67" class="g">❯</text><text x="15.03" y="1.67" class="h">❯</text><text x="16.032" y="1.67" class="i">❯</text><text x="18.036" y="1.67" class="q">a</text><text x="88.176" y="1.67" class="i">master</text><text x="95.19" y="1.67" class="j">◼</text></svg><svg x="776"><use xlink:href="#a"/><use xlink:href="#b" x="19.996"/><text y="1.67" class="f">~/P/p/berries</text><text x="14.028" y="1.67" class="g">❯</text><text x="15.03" y="1.67" class="h">❯</text><text x="16.032" y="1.67" class="i">❯</text><text x="18.036" y="1.67" class="k">ac</text><text x="88.176" y="1.67" class="i">master</text><text x="95.19" y="1.67" class="j">◼</text></svg><svg x="873"><use xlink:href="#a"/><use xlink:href="#b" x="20.996"/><text y="1.67" class="f">~/P/p/berries</text><text x="14.028" y="1.67" class="g">❯</text><text x="15.03" y="1.67" class="h">❯</text><text x="16.032" y="1.67" class="i">❯</text><text x="18.036" y="1.67" class="q">aca</text><text x="88.176" y="1.67" class="i">master</text><text x="95.19" y="1.67" class="j">◼</text></svg><svg x="970"><use xlink:href="#a"/><use xlink:href="#b" x="21.996"/><use xlink:href="#4"/></svg><svg x="1067"><use xlink:href="#a"/><use xlink:href="#b" x="22.996"/><use xlink:href="#4"/></svg><svg x="1164"><use xlink:href="#a"/><use xlink:href="#b" x="22.996"/><use xlink:href="#4"/></svg><svg x="1261"><use xlink:href="#a"/><use xlink:href="#b" x="22.996"/><use xlink:href="#4"/></svg><svg x="1358"><use xlink:href="#a"/><use xlink:href="#b" x="-.004" y="2.146"/><use xlink:href="#4"/></svg><svg x="1455"><use xlink:href="#a"/><use xlink:href="#4"/></svg><svg x="1552"><use xlink:href="#a"/><use xlink:href="#4"/></svg><svg x="1649"><use xlink:href="#a"/><use xlink:href="#4"/></svg><svg x="1746"><use xlink:href="#a"/><use xlink:href="#4"/><text y="3.841" class="k">⠋</text><text x="2.004" y="3.841" class="l">Calculating</text><text x="14.028" y="3.841" class="l">bug</text><text x="18.036" y="3.841" class="l">spots</text></svg><svg x="1843"><use xlink:href="#a"/><use xlink:href="#4"/></svg><svg x="1940"><use xlink:href="#a"/><use xlink:href="#4"/></svg><svg x="2037"><use xlink:href="#a"/><use xlink:href="#b" x="-.004" y="2.146"/><use xlink:href="#4"/></svg><svg x="2134"><use xlink:href="#a"/><use xlink:href="#b" x="-.004" y="4.317"/><use xlink:href="#4"/><use xlink:href="#5" y="2.171"/></svg><svg x="2231"><use xlink:href="#a"/><use xlink:href="#b" x="-.004" y="23.856"/><use xlink:href="#4"/><use xlink:href="#5" y="2.171"/><use xlink:href="#6" y="6.513"/><use xlink:href="#7" y="8.684"/><use xlink:href="#8" y="10.855"/><use xlink:href="#9" y="13.026"/><use xlink:href="#10" y="15.197"/><use xlink:href="#11" y="17.368"/><use xlink:href="#12" y="19.539"/></svg><svg x="2328"><use xlink:href="#a"/><use xlink:href="#b" x="-.004" y="23.856"/><use xlink:href="#4"/><use xlink:href="#5" y="2.171"/><use xlink:href="#6" y="6.513"/><use xlink:href="#7" y="8.684"/><use xlink:href="#8" y="10.855"/><use xlink:href="#9" y="13.026"/><use xlink:href="#10" y="15.197"/><use xlink:href="#11" y="17.368"/><use xlink:href="#12" y="19.539"/></svg><svg x="2425"><use xlink:href="#a"/><use xlink:href="#b" x="-.004" y="23.856"/><use xlink:href="#4"/><use xlink:href="#5" y="2.171"/><use xlink:href="#6" y="6.513"/><use xlink:href="#7" y="8.684"/><use xlink:href="#8" y="10.855"/><use xlink:href="#9" y="13.026"/><use xlink:href="#10" y="15.197"/><use xlink:href="#11" y="17.368"/><use xlink:href="#12" y="19.539"/></svg><svg x="2522"><use xlink:href="#a"/><use xlink:href="#b" x="17.996" y="23.856"/><use xlink:href="#4"/><use xlink:href="#5" y="2.171"/><use xlink:href="#6" y="6.513"/><use xlink:href="#7" y="8.684"/><use xlink:href="#8" y="10.855"/><use xlink:href="#9" y="13.026"/><use xlink:href="#10" y="15.197"/><use xlink:href="#11" y="17.368"/><use xlink:href="#12" y="19.539"/><use xlink:href="#2" y="23.881"/></svg><svg x="2619"><use xlink:href="#a"/><use xlink:href="#b" x="17.996" y="23.856"/><use xlink:href="#4"/><use xlink:href="#5" y="2.171"/><use xlink:href="#6" y="6.513"/><use xlink:href="#7" y="8.684"/><use xlink:href="#8" y="10.855"/><use xlink:href="#9" y="13.026"/><use xlink:href="#10" y="15.197"/><use xlink:href="#11" y="17.368"/><use xlink:href="#12" y="19.539"/><use xlink:href="#2" y="23.881"/></svg><svg x="2716"><use xlink:href="#a"/><use xlink:href="#b" x="17.996" y="23.856"/><use xlink:href="#4"/><use xlink:href="#5" y="2.171"/><use xlink:href="#6" y="6.513"/><use xlink:href="#7" y="8.684"/><use xlink:href="#8" y="10.855"/><use xlink:href="#9" y="13.026"/><use xlink:href="#10" y="15.197"/><use xlink:href="#11" y="17.368"/><use xlink:href="#12" y="19.539"/><use xlink:href="#2" y="23.881"/></svg><svg x="2813"><use xlink:href="#a"/><use xlink:href="#b" x="17.996" y="23.856"/><use xlink:href="#4"/><use xlink:href="#5" y="2.171"/><use xlink:href="#6" y="6.513"/><use xlink:href="#7" y="8.684"/><use xlink:href="#8" y="10.855"/><use xlink:href="#9" y="13.026"/><use xlink:href="#10" y="15.197"/><use xlink:href="#11" y="17.368"/><use xlink:href="#12" y="19.539"/><use xlink:href="#2" y="23.881"/></svg><svg x="2910"><use xlink:href="#a"/><use xlink:href="#b" x="17.996" y="23.856"/><use xlink:href="#4"/><use xlink:href="#5" y="2.171"/><use xlink:href="#6" y="6.513"/><use xlink:href="#7" y="8.684"/><use xlink:href="#8" y="10.855"/><use xlink:href="#9" y="13.026"/><use xlink:href="#10" y="15.197"/><use xlink:href="#11" y="17.368"/><use xlink:href="#12" y="19.539"/><use xlink:href="#3" y="23.881"/></svg><svg x="3007"><use xlink:href="#a"/><use xlink:href="#b" x="-.004" y="26.027"/><use xlink:href="#4"/><use xlink:href="#5" y="2.171"/><use xlink:href="#6" y="6.513"/><use xlink:href="#7" y="8.684"/><use xlink:href="#8" y="10.855"/><use xlink:href="#9" y="13.026"/><use xlink:href="#10" y="15.197"/><use xlink:href="#11" y="17.368"/><use xlink:href="#12" y="19.539"/><use xlink:href="#3" y="23.881"/></svg></svg></g></g></svg></svg>
