<svg xmlns="http://www.w3.org/2000/svg" viewBox="0 0 350 255"><path fill="#89b039" d="M348 71.8H243.2v104.6L347.9 71.8zM106.3 176.4V71.8H1.7l104.6 104.6z"/><circle cx="142.3" cy="124.3" r="65.5" fill="#442f8e"/><circle cx="174.8" cy="68.3" r="65.5" fill="#856db2"/><circle cx="207.3" cy="124.3" r="65.5" fill="#684289"/><path d="M134.2 248.2a14 14 0 0 1-3.2 1.8 11.7 11.7 0 0 1-4.5.8q-4.9 0-7-2.1a11 11 0 0 1-3-5.9h-.3l-1.1 2.3a9 9 0 0 1-2.2 2.7 12.1 12.1 0 0 1-4 2.1 19.2 19.2 0 0 1-6.2.9 19.6 19.6 0 0 1-6.8-1 11 11 0 0 1-4-2.4 6.9 6.9 0 0 1-1.9-3.2 13.2 13.2 0 0 1-.5-3.3 10 10 0 0 1 1.5-5.7 10.7 10.7 0 0 1 3.7-3.4 25.3 25.3 0 0 1 5.1-2.1l5.7-1.8q3.4-1 5.6-2a10 10 0 0 0 3.4-2 6 6 0 0 0 1.7-3 20 20 0 0 0 .4-4.7 28.8 28.8 0 0 0-.3-4.4 9.3 9.3 0 0 0-1.1-3.4 5.1 5.1 0 0 0-2.3-2 9.8 9.8 0 0 0-4.1-.8 11.8 11.8 0 0 0-5.6 1.2 4 4 0 0 0-2.2 3.8 19.4 19.4 0 0 0 .3 3.5 16.3 16.3 0 0 1 .3 2.5 3.2 3.2 0 0 1-1 2.4 4.1 4.1 0 0 1-3 1c-2.2 0-3.6-.4-4.2-1.3a5.6 5.6 0 0 1-.8-3.1 9.5 9.5 0 0 1 1-4.3 10.9 10.9 0 0 1 3-3.6 15 15 0 0 1 5-2.5 23.6 23.6 0 0 1 7-1 22.9 22.9 0 0 1 7.8 1.2 13.6 13.6 0 0 1 5 3.2 11.5 11.5 0 0 1 2.8 4.5 17 17 0 0 1 .9 5.2v25.4c0 2 .3 3.3.9 4a3.4 3.4 0 0 0 2.6 1 7.5 7.5 0 0 0 2.4-.4 8.7 8.7 0 0 0 2.3-1.2zm-17.9-23.8h-.2c-.1.8-1.3 1.7-3.4 2.6l-7.6 3a11.2 11.2 0 0 0-5 3.8 10 10 0 0 0-1.8 6 17.4 17.4 0 0 0 .3 3.2 8.1 8.1 0 0 0 1.2 2.9 6.2 6.2 0 0 0 2.3 2 8 8 0 0 0 3.8.9 9.5 9.5 0 0 0 5.5-1.5 9.3 9.3 0 0 0 3.1-3.5 15.3 15.3 0 0 0 1.5-4.7 32 32 0 0 0 .4-4.5zm63.7 13.7a29.5 29.5 0 0 1-1.2 3.2 14.8 14.8 0 0 1-2.7 4.2 16.7 16.7 0 0 1-5.1 3.7 18.8 18.8 0 0 1-8.3 1.6 28.6 28.6 0 0 1-8.1-1.2 23 23 0 0 1-7.7-4 20.3 20.3 0 0 1-5.6-7 24 24 0 0 1-2.2-10.9 22.8 22.8 0 0 1 1.9-9.3 23.7 23.7 0 0 1 5-7.4 23.2 23.2 0 0 1 7.6-5 24 24 0 0 1 9.3-1.8 25.6 25.6 0 0 1 5.6.7 19.4 19.4 0 0 1 5.3 2 12.6 12.6 0 0 1 4 3.6 9 9 0 0 1 1.6 5.3 4.8 4.8 0 0 1-1.4 3.6 5.3 5.3 0 0 1-4 1.4 7.5 7.5 0 0 1-3.3-.8 2.7 2.7 0 0 1-1.5-2.6 11 11 0 0 1 .7-3.5 10.6 10.6 0 0 0 .7-3.3 4 4 0 0 0-2.4-3.7 11.2 11.2 0 0 0-5.4-1.2 20.6 20.6 0 0 0-4.6.5 8.5 8.5 0 0 0-4.4 2.8 17.3 17.3 0 0 0-3.3 6.8 46.6 46.6 0 0 0-1.2 12.2 58.4 58.4 0 0 0 .5 8.3 22 22 0 0 0 2 6.8 11.6 11.6 0 0 0 4.1 4.6 12.3 12.3 0 0 0 6.8 1.6 18 18 0 0 0 7.4-1.3 13.4 13.4 0 0 0 7.1-7c.6-1.3 1-2.3 1.2-3.2zm52.4 10.1a14 14 0 0 1-3.2 1.8 11.7 11.7 0 0 1-4.5.8q-4.9 0-7-2.1a11 11 0 0 1-3-5.9h-.3l-1.1 2.3a9.2 9.2 0 0 1-2.2 2.7 12.1 12.1 0 0 1-4 2.1 19.2 19.2 0 0 1-6.1.9 19.6 19.6 0 0 1-6.9-1 11 11 0 0 1-4-2.4 7 7 0 0 1-1.9-3.2 13.2 13.2 0 0 1-.4-3.3 10 10 0 0 1 1.4-5.7 10.7 10.7 0 0 1 3.7-3.5 25.3 25.3 0 0 1 5.1-2l5.7-1.8q3.4-1.1 5.6-2a10 10 0 0 0 3.4-2 6 6 0 0 0 1.7-3 20 20 0 0 0 .4-4.8 28.8 28.8 0 0 0-.3-4.4 9.3 9.3 0 0 0-1.1-3.3 5.1 5.1 0 0 0-2.4-2 9.7 9.7 0 0 0-4-.8 11.8 11.8 0 0 0-5.6 1.2 4 4 0 0 0-2.2 3.8 18.5 18.5 0 0 0 .3 3.4 16.3 16.3 0 0 1 .3 2.5 3.2 3.2 0 0 1-1 2.4 4.1 4.1 0 0 1-3 1c-2.2 0-3.6-.4-4.2-1.2a5.6 5.6 0 0 1-.8-3.2 9.5 9.5 0 0 1 1-4.2 10.9 10.9 0 0 1 3-3.7 15 15 0 0 1 5-2.5 23.6 23.6 0 0 1 6.9-.9 22.9 22.9 0 0 1 7.9 1.2 13.6 13.6 0 0 1 5 3.2 11.5 11.5 0 0 1 2.8 4.4 17 17 0 0 1 .8 5.3v25.4c0 2 .3 3.3 1 4a3.4 3.4 0 0 0 2.6 1 7.5 7.5 0 0 0 2.4-.4 8.7 8.7 0 0 0 2.3-1.2zm-17.9-23.8h-.2c-.1.8-1.3 1.7-3.4 2.6l-7.6 3a11.2 11.2 0 0 0-5 3.8 10 10 0 0 0-1.7 6 16.6 16.6 0 0 0 .3 3.2 8 8 0 0 0 1 2.9 6.2 6.2 0 0 0 2.4 2 7.9 7.9 0 0 0 3.8.9 9.5 9.5 0 0 0 5.5-1.5 9.3 9.3 0 0 0 3.1-3.5 15 15 0 0 0 1.5-4.7 32 32 0 0 0 .3-4.5zm21.1 23.6h7.8v-41h-7.8v-1.4h16.6v42.3h7.9v1.5h-24.6z"/></svg>